<svg width="548" height="126" viewBox="0 0 548 126" fill="none" xmlns="http://www.w3.org/2000/svg">
<path d="M67.536 8.368C67.536 10.288 67.12 11.728 66.288 12.688C65.52 13.648 64.24 14.128 62.448 14.128C62.32 15.472 62.032 17.808 61.584 21.136C60.944 25.616 60.592 28.112 60.528 28.624C54.832 71.056 42.96 92.272 24.912 92.272C19.6 92.272 15.44 90.768 12.432 87.76C9.488 84.752 8.016 80.976 8.016 76.432C8.016 68.304 11.472 61.136 18.384 54.928C25.296 48.656 34.384 43.472 45.648 39.376C46.352 34.832 46.896 30.768 47.28 27.184L49.008 12.688C45.168 12.304 41.584 12.112 38.256 12.112C29.36 12.112 22.8 12.976 18.576 14.704C14.352 16.432 12.24 19.248 12.24 23.152C12.24 25.072 12.88 27.152 14.16 29.392C14.544 30.032 14.736 30.704 14.736 31.408C14.736 32.752 14.032 33.968 12.624 35.056C11.28 36.08 9.808 36.592 8.208 36.592C6.16 36.592 4.592 35.728 3.504 34C1.712 31.056 0.816 27.632 0.816 23.728C0.816 8.36799 14.256 0.687994 41.136 0.687994C48.944 0.687994 55.92 1.456 62.064 2.992C65.712 3.888 67.536 5.68 67.536 8.368ZM26.16 82C29.296 82 32.432 79.632 35.568 74.896C38.704 70.16 41.456 61.872 43.824 50.032C28.208 56.88 20.4 65.264 20.4 75.184C20.4 77.36 20.912 79.056 21.936 80.272C22.96 81.424 24.368 82 26.16 82ZM114.599 52.528C115.431 52.528 116.071 52.944 116.519 53.776C116.967 54.608 117.191 55.664 117.191 56.944C117.191 60.016 116.263 61.84 114.407 62.416C110.567 63.76 106.343 64.528 101.735 64.72C100.519 70.096 98.1193 74.416 94.5353 77.68C90.9513 80.88 86.8873 82.48 82.3433 82.48C78.5033 82.48 75.2073 81.552 72.4553 79.696C69.7673 77.84 67.7193 75.376 66.3113 72.304C64.9033 69.232 64.1992 65.904 64.1992 62.32C64.1992 57.456 65.1273 53.136 66.9833 49.36C68.8393 45.52 71.3993 42.544 74.6633 40.432C77.9273 38.256 81.5433 37.168 85.5113 37.168C90.3753 37.168 94.2793 38.864 97.2233 42.256C100.231 45.584 101.991 49.712 102.503 54.64C105.511 54.448 109.095 53.808 113.255 52.72C113.767 52.592 114.215 52.528 114.599 52.528ZM83.1113 72.304C85.1593 72.304 86.9193 71.472 88.3913 69.808C89.9273 68.144 90.9513 65.744 91.4633 62.608C89.4793 61.264 87.9433 59.504 86.8553 57.328C85.8313 55.152 85.3193 52.848 85.3193 50.416C85.3193 49.392 85.4153 48.368 85.6073 47.344H85.1273C82.5673 47.344 80.4233 48.592 78.6953 51.088C77.0313 53.52 76.1993 56.976 76.1993 61.456C76.1993 64.976 76.8713 67.664 78.2153 69.52C79.6233 71.376 81.2553 72.304 83.1113 72.304ZM115.768 82.48C113.336 82.48 111.608 81.2 110.584 78.64C109.624 76.08 109.144 71.984 109.144 66.352C109.144 58.032 110.328 50.128 112.696 42.64C113.272 40.784 114.2 39.44 115.48 38.608C116.824 37.712 118.68 37.264 121.048 37.264C122.328 37.264 123.224 37.424 123.736 37.744C124.248 38.064 124.504 38.672 124.504 39.568C124.504 40.592 124.024 42.896 123.064 46.48C122.424 49.04 121.912 51.28 121.528 53.2C121.144 55.12 120.824 57.488 120.568 60.304C122.68 54.8 125.048 50.32 127.672 46.864C130.296 43.408 132.856 40.944 135.352 39.472C137.912 38 140.248 37.264 142.36 37.264C146.52 37.264 148.6 39.344 148.6 43.504C148.6 46 147.896 50.512 146.488 57.04C145.272 62.608 144.664 66.288 144.664 68.08C144.664 70.64 145.592 71.92 147.448 71.92C148.728 71.92 150.232 71.152 151.96 69.616C153.752 68.016 156.12 65.456 159.064 61.936C159.832 61.04 160.696 60.592 161.656 60.592C162.488 60.592 163.128 60.976 163.576 61.744C164.088 62.512 164.344 63.568 164.344 64.912C164.344 67.472 163.736 69.456 162.52 70.864C159.768 74.256 156.792 77.04 153.592 79.216C150.456 81.392 146.872 82.48 142.84 82.48C139.576 82.48 137.112 81.552 135.448 79.696C133.784 77.776 132.952 75.024 132.952 71.44C132.952 69.648 133.4 66.448 134.296 61.84C135.128 57.808 135.544 55.024 135.544 53.488C135.544 52.464 135.192 51.952 134.488 51.952C133.656 51.952 132.472 53.04 130.936 55.216C129.464 57.328 127.928 60.144 126.328 63.664C124.792 67.184 123.544 70.896 122.584 74.8C121.88 77.808 121.048 79.856 120.088 80.944C119.192 81.968 117.752 82.48 115.768 82.48ZM169.153 30.928C166.465 30.928 164.449 30.32 163.105 29.104C161.761 27.824 161.089 26.064 161.089 23.824C161.089 21.584 161.953 19.728 163.681 18.256C165.473 16.72 167.681 15.952 170.305 15.952C172.673 15.952 174.593 16.528 176.065 17.68C177.537 18.832 178.273 20.464 178.273 22.576C178.273 25.136 177.441 27.184 175.777 28.72C174.113 30.192 171.905 30.928 169.153 30.928ZM168.385 82.48C164.225 82.48 161.185 81.008 159.265 78.064C157.409 75.12 156.481 71.216 156.481 66.352C156.481 63.472 156.833 59.792 157.537 55.312C158.305 50.768 159.265 46.544 160.417 42.64C160.993 40.592 161.761 39.184 162.721 38.416C163.681 37.648 165.217 37.264 167.329 37.264C170.593 37.264 172.225 38.352 172.225 40.528C172.225 42.128 171.617 45.84 170.401 51.664C168.865 58.704 168.097 63.472 168.097 65.968C168.097 67.888 168.353 69.36 168.865 70.384C169.377 71.408 170.241 71.92 171.457 71.92C172.609 71.92 174.049 71.12 175.777 69.52C177.505 67.92 179.809 65.392 182.689 61.936C183.457 61.04 184.321 60.592 185.281 60.592C186.113 60.592 186.753 60.976 187.201 61.744C187.713 62.512 187.969 63.568 187.969 64.912C187.969 67.472 187.361 69.456 186.145 70.864C179.809 78.608 173.889 82.48 168.385 82.48ZM204.394 82.48C199.978 82.48 195.978 81.392 192.394 79.216C188.874 77.04 186.09 73.904 184.042 69.808C181.994 65.648 180.97 60.752 180.97 55.12C180.97 45.392 183.05 36.4 187.21 28.144C191.37 19.824 197.514 13.168 205.642 8.17599C213.77 3.12 223.53 0.591995 234.922 0.591995C237.866 0.591995 241.002 0.815996 244.33 1.264C247.722 1.712 250.794 2.384 253.546 3.27999C255.338 3.792 256.234 5.072 256.234 7.12C256.234 8.784 255.594 10.352 254.314 11.824C253.098 13.296 251.658 14.032 249.994 14.032C249.482 14.032 249.098 14 248.842 13.936C245.514 13.168 242.666 12.624 240.298 12.304C237.93 11.92 235.434 11.728 232.81 11.728C224.682 11.728 217.77 13.712 212.074 17.68C206.378 21.584 202.122 26.768 199.306 33.232C196.49 39.696 195.082 46.672 195.082 54.16C195.082 59.6 196.138 63.824 198.25 66.832C200.426 69.776 203.242 71.248 206.698 71.248C210.602 71.248 214.026 69.648 216.97 66.448C219.914 63.248 222.602 58.064 225.034 50.896C227.466 43.728 229.866 34 232.234 21.712C232.618 19.92 233.386 18.704 234.538 18.064C235.69 17.424 237.226 17.104 239.146 17.104C243.69 17.104 245.962 18.576 245.962 21.52C245.962 22.032 245.866 22.672 245.674 23.44C244.01 29.648 242.474 36.528 241.066 44.08C239.722 51.568 239.05 57.264 239.05 61.168C239.05 64.624 239.562 67.152 240.586 68.752C241.61 70.288 243.178 71.056 245.29 71.056C247.338 71.056 249.29 70.384 251.146 69.04C253.002 67.632 255.338 65.264 258.154 61.936C258.922 61.04 259.786 60.592 260.746 60.592C261.578 60.592 262.218 60.976 262.666 61.744C263.178 62.512 263.434 63.568 263.434 64.912C263.434 67.408 262.826 69.392 261.61 70.864C258.474 74.64 255.402 77.52 252.394 79.504C249.386 81.488 245.706 82.48 241.354 82.48C236.874 82.48 233.258 81.2 230.506 78.64C227.754 76.016 226.026 72.336 225.322 67.6C220.586 77.52 213.61 82.48 204.394 82.48ZM262.487 82.48C260.055 82.48 258.327 81.2 257.303 78.64C256.343 76.08 255.863 71.984 255.863 66.352C255.863 58.032 257.047 50.128 259.415 42.64C259.991 40.784 260.919 39.44 262.199 38.608C263.543 37.712 265.399 37.264 267.767 37.264C269.047 37.264 269.943 37.424 270.455 37.744C270.967 38.064 271.223 38.672 271.223 39.568C271.223 40.592 270.743 42.896 269.783 46.48C269.143 49.04 268.631 51.28 268.247 53.2C267.863 55.12 267.543 57.488 267.287 60.304C269.399 54.8 271.767 50.32 274.391 46.864C277.015 43.408 279.575 40.944 282.071 39.472C284.631 38 286.967 37.264 289.079 37.264C293.239 37.264 295.319 39.344 295.319 43.504C295.319 44.336 295.031 46.352 294.455 49.552C293.943 52.112 293.687 53.712 293.687 54.352C293.687 56.592 294.487 57.712 296.087 57.712C297.879 57.712 300.183 56.304 302.999 53.488C303.831 52.656 304.695 52.24 305.591 52.24C306.423 52.24 307.063 52.624 307.51 53.392C308.023 54.096 308.279 55.056 308.279 56.272C308.279 58.64 307.639 60.496 306.359 61.84C304.567 63.696 302.455 65.296 300.023 66.64C297.655 67.92 295.127 68.56 292.439 68.56C289.047 68.56 286.455 67.696 284.663 65.968C282.935 64.24 282.071 61.904 282.071 58.96C282.071 58 282.167 57.04 282.359 56.08C282.487 54.8 282.551 53.936 282.551 53.488C282.551 52.464 282.199 51.952 281.495 51.952C280.535 51.952 279.255 53.04 277.655 55.216C276.119 57.328 274.583 60.144 273.047 63.664C271.511 67.184 270.263 70.896 269.303 74.8C268.599 77.808 267.767 79.856 266.807 80.944C265.911 81.968 264.471 82.48 262.487 82.48ZM311.166 82.48C307.198 82.48 304.03 81.04 301.662 78.16C299.294 75.28 298.11 71.504 298.11 66.832C298.11 61.712 299.294 56.88 301.662 52.336C304.03 47.728 307.166 44.048 311.07 41.296C315.038 38.48 319.23 37.072 323.646 37.072C325.054 37.072 325.982 37.36 326.43 37.936C326.942 38.448 327.358 39.408 327.678 40.816C329.022 40.56 330.43 40.432 331.902 40.432C335.038 40.432 336.606 41.552 336.606 43.792C336.606 45.136 336.126 48.336 335.166 53.392C333.694 60.752 332.958 65.872 332.958 68.752C332.958 69.712 333.182 70.48 333.63 71.056C334.142 71.632 334.782 71.92 335.55 71.92C336.766 71.92 338.238 71.152 339.966 69.616C341.694 68.016 344.03 65.456 346.974 61.936C347.742 61.04 348.606 60.592 349.566 60.592C350.398 60.592 351.038 60.976 351.486 61.744C351.998 62.512 352.254 63.568 352.254 64.912C352.254 67.472 351.646 69.456 350.43 70.864C347.806 74.128 345.022 76.88 342.078 79.12C339.134 81.36 336.286 82.48 333.534 82.48C331.422 82.48 329.47 81.776 327.678 80.368C325.95 78.896 324.638 76.912 323.742 74.416C320.414 79.792 316.222 82.48 311.166 82.48ZM314.622 72.784C316.03 72.784 317.374 71.952 318.654 70.288C319.934 68.624 320.862 66.416 321.438 63.664L324.99 46C322.302 46.064 319.806 47.088 317.502 49.072C315.262 50.992 313.47 53.552 312.126 56.752C310.782 59.952 310.11 63.344 310.11 66.928C310.11 68.912 310.494 70.384 311.262 71.344C312.094 72.304 313.214 72.784 314.622 72.784ZM351.268 82.48C348.836 82.48 347.108 81.2 346.084 78.64C345.124 76.08 344.644 71.984 344.644 66.352C344.644 58.032 345.828 50.128 348.196 42.64C348.772 40.784 349.7 39.44 350.98 38.608C352.324 37.712 354.18 37.264 356.548 37.264C357.828 37.264 358.724 37.424 359.236 37.744C359.748 38.064 360.004 38.672 360.004 39.568C360.004 40.592 359.524 42.896 358.564 46.48C357.924 49.04 357.412 51.28 357.028 53.2C356.644 55.12 356.324 57.488 356.068 60.304C358.18 54.8 360.548 50.32 363.172 46.864C365.796 43.408 368.356 40.944 370.852 39.472C373.412 38 375.748 37.264 377.86 37.264C382.02 37.264 384.1 39.344 384.1 43.504C384.1 46 383.396 50.512 381.988 57.04C380.772 62.608 380.164 66.288 380.164 68.08C380.164 70.64 381.092 71.92 382.948 71.92C384.228 71.92 385.732 71.152 387.46 69.616C389.252 68.016 391.62 65.456 394.564 61.936C395.332 61.04 396.196 60.592 397.156 60.592C397.988 60.592 398.628 60.976 399.076 61.744C399.588 62.512 399.844 63.568 399.844 64.912C399.844 67.472 399.236 69.456 398.02 70.864C395.268 74.256 392.292 77.04 389.092 79.216C385.956 81.392 382.372 82.48 378.34 82.48C375.076 82.48 372.612 81.552 370.948 79.696C369.284 77.776 368.452 75.024 368.452 71.44C368.452 69.648 368.9 66.448 369.796 61.84C370.628 57.808 371.044 55.024 371.044 53.488C371.044 52.464 370.692 51.952 369.988 51.952C369.156 51.952 367.972 53.04 366.436 55.216C364.964 57.328 363.428 60.144 361.828 63.664C360.292 67.184 359.044 70.896 358.084 74.8C357.38 77.808 356.548 79.856 355.588 80.944C354.692 81.968 353.252 82.48 351.268 82.48ZM441.229 60.784C442.061 60.784 442.701 61.2 443.149 62.032C443.661 62.8 443.917 63.792 443.917 65.008C443.917 66.48 443.693 67.632 443.245 68.464C442.797 69.296 442.093 70.032 441.133 70.672C435.629 74.384 431.597 77.136 429.037 78.928L422.893 83.056C420.461 96.304 417.261 106.704 413.293 114.256C409.389 121.872 404.397 125.68 398.317 125.68C395.053 125.68 392.397 124.656 390.349 122.608C388.301 120.624 387.277 118 387.277 114.736C387.277 110.192 389.069 105.296 392.653 100.048C396.237 94.864 402.957 88.464 412.813 80.848L413.389 77.104C412.301 78.832 410.861 80.176 409.069 81.136C407.341 82.032 405.613 82.48 403.885 82.48C399.917 82.48 396.749 81.04 394.381 78.16C392.013 75.28 390.829 71.504 390.829 66.832C390.829 61.712 392.013 56.88 394.381 52.336C396.749 47.728 399.885 44.048 403.789 41.296C407.757 38.48 411.949 37.072 416.365 37.072C417.773 37.072 418.701 37.36 419.149 37.936C419.661 38.448 420.077 39.408 420.397 40.816C421.613 40.56 423.021 40.432 424.621 40.432C426.221 40.432 427.341 40.688 427.981 41.2C428.685 41.648 429.037 42.576 429.037 43.984C429.037 44.752 429.005 45.36 428.941 45.808C428.685 47.792 427.885 52.816 426.541 60.88C426.285 62.416 425.997 64.112 425.677 65.968C425.421 67.76 425.133 69.68 424.813 71.728C429.741 67.888 434.477 64.496 439.021 61.552C439.853 61.04 440.589 60.784 441.229 60.784ZM407.341 72.784C408.813 72.784 410.221 71.888 411.565 70.096C412.909 68.304 413.869 65.744 414.445 62.416L417.517 46C414.893 46.064 412.461 47.088 410.221 49.072C407.981 50.992 406.189 53.552 404.845 56.752C403.501 59.952 402.829 63.344 402.829 66.928C402.829 68.912 403.213 70.384 403.981 71.344C404.813 72.304 405.933 72.784 407.341 72.784ZM399.373 116.368C400.973 116.368 402.765 114.448 404.749 110.608C406.797 106.768 408.749 100.656 410.605 92.272C405.677 96.496 402.125 100.304 399.949 103.696C397.773 107.088 396.685 110.064 396.685 112.624C396.685 113.712 396.877 114.608 397.261 115.312C397.709 116.016 398.413 116.368 399.373 116.368ZM446.775 82.48C443.895 82.48 441.527 81.168 439.671 78.544C437.879 75.856 436.983 72.528 436.983 68.56C436.983 63.76 437.303 59.376 437.943 55.408C438.583 51.376 439.639 47.12 441.111 42.64C441.751 40.72 442.647 39.344 443.799 38.512C444.951 37.68 446.775 37.264 449.271 37.264C450.679 37.264 451.639 37.488 452.151 37.936C452.727 38.384 453.015 39.056 453.015 39.952C453.015 40.464 452.663 42.192 451.959 45.136C451.319 47.504 450.807 49.648 450.423 51.568C449.143 58.288 448.503 62.768 448.503 65.008C448.503 66.352 448.663 67.312 448.983 67.888C449.303 68.4 449.815 68.656 450.519 68.656C451.479 68.656 452.663 67.696 454.071 65.776C455.543 63.856 457.079 60.944 458.679 57.04C460.343 53.136 461.943 48.336 463.479 42.64C463.991 40.72 464.759 39.344 465.783 38.512C466.871 37.68 468.471 37.264 470.583 37.264C472.055 37.264 473.079 37.456 473.655 37.84C474.231 38.16 474.519 38.8 474.519 39.76C474.519 41.36 473.719 45.744 472.119 52.912C470.327 61.104 469.431 66.16 469.431 68.08C469.431 69.296 469.687 70.256 470.199 70.96C470.711 71.6 471.383 71.92 472.215 71.92C473.495 71.92 474.999 71.152 476.727 69.616C478.519 68.016 480.887 65.456 483.831 61.936C484.599 61.04 485.463 60.592 486.423 60.592C487.255 60.592 487.895 60.976 488.343 61.744C488.855 62.512 489.111 63.568 489.111 64.912C489.111 67.472 488.503 69.456 487.287 70.864C484.535 74.256 481.559 77.04 478.359 79.216C475.223 81.392 471.639 82.48 467.607 82.48C464.535 82.48 462.263 81.296 460.791 78.928C459.383 76.56 458.679 73.232 458.679 68.944C457.591 73.296 455.959 76.656 453.783 79.024C451.607 81.328 449.271 82.48 446.775 82.48ZM488.143 82.48C485.711 82.48 483.983 81.2 482.959 78.64C481.999 76.08 481.519 71.984 481.519 66.352C481.519 58.032 482.703 50.128 485.071 42.64C485.647 40.784 486.575 39.44 487.855 38.608C489.199 37.712 491.055 37.264 493.423 37.264C494.703 37.264 495.599 37.424 496.111 37.744C496.623 38.064 496.879 38.672 496.879 39.568C496.879 40.592 496.399 42.896 495.439 46.48C494.799 49.04 494.287 51.28 493.903 53.2C493.519 55.12 493.199 57.488 492.943 60.304C495.055 54.8 497.423 50.32 500.047 46.864C502.671 43.408 505.231 40.944 507.727 39.472C510.287 38 512.623 37.264 514.735 37.264C518.895 37.264 520.975 39.344 520.975 43.504C520.975 44.336 520.687 46.352 520.111 49.552C519.599 52.112 519.343 53.712 519.343 54.352C519.343 56.592 520.143 57.712 521.743 57.712C523.535 57.712 525.839 56.304 528.655 53.488C529.487 52.656 530.351 52.24 531.247 52.24C532.079 52.24 532.719 52.624 533.167 53.392C533.679 54.096 533.935 55.056 533.935 56.272C533.935 58.64 533.295 60.496 532.015 61.84C530.223 63.696 528.111 65.296 525.679 66.64C523.311 67.92 520.783 68.56 518.095 68.56C514.703 68.56 512.111 67.696 510.319 65.968C508.591 64.24 507.727 61.904 507.727 58.96C507.727 58 507.823 57.04 508.015 56.08C508.143 54.8 508.207 53.936 508.207 53.488C508.207 52.464 507.855 51.952 507.151 51.952C506.191 51.952 504.911 53.04 503.311 55.216C501.775 57.328 500.239 60.144 498.703 63.664C497.167 67.184 495.919 70.896 494.959 74.8C494.255 77.808 493.423 79.856 492.463 80.944C491.567 81.968 490.127 82.48 488.143 82.48ZM538.262 30.928C535.574 30.928 533.558 30.32 532.214 29.104C530.87 27.824 530.198 26.064 530.198 23.824C530.198 21.584 531.062 19.728 532.79 18.256C534.582 16.72 536.79 15.952 539.414 15.952C541.782 15.952 543.702 16.528 545.174 17.68C546.646 18.832 547.382 20.464 547.382 22.576C547.382 25.136 546.55 27.184 544.886 28.72C543.222 30.192 541.014 30.928 538.262 30.928ZM529.046 82.48C526.998 82.48 525.59 82.064 524.822 81.232C524.054 80.4 523.67 79.088 523.67 77.296C523.67 76.784 523.734 75.888 523.862 74.608C524.886 62.896 526.582 52.24 528.95 42.64C529.462 40.656 530.294 39.28 531.446 38.512C532.662 37.68 534.582 37.264 537.206 37.264C539.958 37.264 541.334 38.384 541.334 40.624C541.334 40.944 541.27 41.552 541.142 42.448C538.262 56.144 536.534 67.632 535.958 76.912C535.83 78.96 535.222 80.4 534.134 81.232C533.046 82.064 531.35 82.48 529.046 82.48Z" fill="white"/>
</svg>
